<svg width="125" height="38" viewBox="0 0 125 38" fill="none" xmlns="http://www.w3.org/2000/svg">
<path d="M8.34465e-07 36.9034V1.99432H7.38068V17.3864H7.84091L20.4034 1.99432H29.25L16.2955 17.625L29.4034 36.9034H20.5739L11.0114 22.5511L7.38068 26.983V36.9034H8.34465e-07ZM40.4233 37.3977C38.7528 37.3977 37.2642 37.108 35.9574 36.5284C34.6506 35.9375 33.6165 35.0682 32.8551 33.9205C32.1051 32.7614 31.7301 31.3182 31.7301 29.5909C31.7301 28.1364 31.9972 26.9148 32.5313 25.9261C33.0653 24.9375 33.7926 24.142 34.7131 23.5398C35.6335 22.9375 36.679 22.483 37.8494 22.1761C39.0313 21.8693 40.2699 21.6534 41.5653 21.5284C43.0881 21.3693 44.3153 21.2216 45.2472 21.0852C46.179 20.9375 46.8551 20.7216 47.2756 20.4375C47.696 20.1534 47.9063 19.733 47.9063 19.1761V19.0739C47.9063 17.9943 47.5653 17.1591 46.8835 16.5682C46.2131 15.9773 45.2585 15.6818 44.0199 15.6818C42.7131 15.6818 41.6733 15.9716 40.9006 16.5511C40.1278 17.1193 39.6165 17.8352 39.3665 18.6989L32.6506 18.1534C32.9915 16.5625 33.6619 15.1875 34.6619 14.0284C35.6619 12.858 36.9517 11.9602 38.5313 11.3352C40.1222 10.6989 41.9631 10.3807 44.054 10.3807C45.5085 10.3807 46.9006 10.5511 48.2301 10.892C49.571 11.233 50.7585 11.7614 51.7926 12.4773C52.8381 13.1932 53.6619 14.1136 54.2642 15.2386C54.8665 16.3523 55.1676 17.6875 55.1676 19.2443V36.9034H48.2813V33.2727H48.0767C47.6563 34.0909 47.0938 34.8125 46.3892 35.4375C45.6847 36.0511 44.8381 36.5341 43.8494 36.8864C42.8608 37.2273 41.7188 37.3977 40.4233 37.3977ZM42.5028 32.3864C43.571 32.3864 44.5142 32.1761 45.3324 31.7557C46.1506 31.3239 46.7926 30.7443 47.2585 30.017C47.7244 29.2898 47.9574 28.4659 47.9574 27.5455V24.767C47.7301 24.9148 47.4176 25.0511 47.0199 25.1761C46.6335 25.2898 46.196 25.3977 45.7074 25.5C45.2188 25.5909 44.7301 25.6761 44.2415 25.7557C43.7528 25.8239 43.3097 25.8864 42.9119 25.9432C42.0597 26.0682 41.3153 26.267 40.679 26.5398C40.0426 26.8125 39.5483 27.1818 39.196 27.6477C38.8438 28.1023 38.6676 28.6705 38.6676 29.3523C38.6676 30.3409 39.0256 31.0966 39.7415 31.6193C40.4688 32.1307 41.3892 32.3864 42.5028 32.3864ZM60.8011 36.9034V10.7216H68.0625V36.9034H60.8011ZM64.4489 7.34659C63.3693 7.34659 62.4432 6.98864 61.6705 6.27273C60.9091 5.54546 60.5284 4.67614 60.5284 3.66477C60.5284 2.66477 60.9091 1.80682 61.6705 1.09091C62.4432 0.363638 63.3693 9.53674e-07 64.4489 9.53674e-07C65.5284 9.53674e-07 66.4489 0.363638 67.2102 1.09091C67.983 1.80682 68.3693 2.66477 68.3693 3.66477C68.3693 4.67614 67.983 5.54546 67.2102 6.27273C66.4489 6.98864 65.5284 7.34659 64.4489 7.34659ZM80.4588 29.3693L80.4759 20.6591H81.5327L89.919 10.7216H98.2543L86.9872 23.8807H85.2656L80.4588 29.3693ZM73.8793 36.9034V1.99432H81.1406V36.9034H73.8793ZM90.2429 36.9034L82.5384 25.5L87.3793 20.3693L98.7486 36.9034H90.2429ZM112.67 37.4148C109.977 37.4148 107.659 36.8693 105.716 35.7784C103.784 34.6761 102.295 33.1193 101.25 31.108C100.205 29.0852 99.6818 26.6932 99.6818 23.9318C99.6818 21.2386 100.205 18.875 101.25 16.8409C102.295 14.8068 103.767 13.2216 105.665 12.0852C107.574 10.9489 109.813 10.3807 112.381 10.3807C114.108 10.3807 115.716 10.6591 117.205 11.2159C118.705 11.7614 120.011 12.5852 121.125 13.6875C122.25 14.7898 123.125 16.1761 123.75 17.8466C124.375 19.5057 124.688 21.4489 124.688 23.6761V25.6705H102.58V21.1705H117.852C117.852 20.125 117.625 19.1989 117.17 18.392C116.716 17.5852 116.085 16.9545 115.278 16.5C114.483 16.0341 113.557 15.8011 112.5 15.8011C111.398 15.8011 110.42 16.0568 109.568 16.5682C108.727 17.0682 108.068 17.7443 107.591 18.5966C107.114 19.4375 106.869 20.375 106.858 21.4091V25.6875C106.858 26.983 107.097 28.1023 107.574 29.0455C108.063 29.9886 108.75 30.7159 109.636 31.2273C110.523 31.7386 111.574 31.9943 112.79 31.9943C113.597 31.9943 114.335 31.8807 115.006 31.6534C115.676 31.4261 116.25 31.0852 116.727 30.6307C117.205 30.1761 117.568 29.6193 117.818 28.9602L124.534 29.4034C124.193 31.017 123.494 32.4261 122.438 33.6307C121.392 34.8239 120.04 35.7557 118.381 36.4261C116.733 37.0852 114.83 37.4148 112.67 37.4148Z" fill="black"/>
</svg>
